<mxfile host="app.diagrams.net" modified="2023-04-03T00:25:15.667Z" agent="Mozilla/5.0 (Windows NT 10.0; Win64; x64) AppleWebKit/537.36 (KHTML, like Gecko) Chrome/111.0.0.0 Safari/537.36" etag="aJnUeIQND2ViGnQHqI5p" version="21.1.2" type="device">
  <diagram id="ZNcC-8CPmojZ1fEYAFu-" name="Page-1">
    <mxGraphModel dx="882" dy="596" grid="1" gridSize="10" guides="1" tooltips="1" connect="1" arrows="1" fold="1" page="1" pageScale="1" pageWidth="850" pageHeight="1100" math="0" shadow="0">
      <root>
        <mxCell id="0" />
        <mxCell id="1" parent="0" />
        <mxCell id="n7BuenmuqCD32Pcl5eWK-3" style="edgeStyle=orthogonalEdgeStyle;rounded=0;orthogonalLoop=1;jettySize=auto;html=1;exitX=1;exitY=0.5;exitDx=0;exitDy=0;" parent="1" source="n7BuenmuqCD32Pcl5eWK-1" target="n7BuenmuqCD32Pcl5eWK-2" edge="1">
          <mxGeometry relative="1" as="geometry" />
        </mxCell>
        <mxCell id="n7BuenmuqCD32Pcl5eWK-1" value="User" style="rounded=1;whiteSpace=wrap;html=1;" parent="1" vertex="1">
          <mxGeometry x="40" y="190" width="120" height="60" as="geometry" />
        </mxCell>
        <mxCell id="n7BuenmuqCD32Pcl5eWK-11" style="edgeStyle=orthogonalEdgeStyle;rounded=0;orthogonalLoop=1;jettySize=auto;html=1;exitX=0.5;exitY=1;exitDx=0;exitDy=0;entryX=0.5;entryY=0;entryDx=0;entryDy=0;" parent="1" source="n7BuenmuqCD32Pcl5eWK-2" edge="1">
          <mxGeometry relative="1" as="geometry">
            <mxPoint x="300" y="310" as="targetPoint" />
          </mxGeometry>
        </mxCell>
        <mxCell id="WBLcJxLok1SSoJ_mdsIE-7" style="edgeStyle=orthogonalEdgeStyle;rounded=0;orthogonalLoop=1;jettySize=auto;html=1;exitX=1;exitY=0.5;exitDx=0;exitDy=0;entryX=0;entryY=0.5;entryDx=0;entryDy=0;" edge="1" parent="1" source="n7BuenmuqCD32Pcl5eWK-2" target="WBLcJxLok1SSoJ_mdsIE-5">
          <mxGeometry relative="1" as="geometry" />
        </mxCell>
        <mxCell id="n7BuenmuqCD32Pcl5eWK-2" value="Ad selection" style="rounded=1;whiteSpace=wrap;html=1;" parent="1" vertex="1">
          <mxGeometry x="240" y="190" width="120" height="60" as="geometry" />
        </mxCell>
        <mxCell id="n7BuenmuqCD32Pcl5eWK-4" value="Query" style="text;html=1;strokeColor=none;fillColor=none;align=center;verticalAlign=middle;whiteSpace=wrap;rounded=0;" parent="1" vertex="1">
          <mxGeometry x="170" y="160" width="60" height="30" as="geometry" />
        </mxCell>
        <mxCell id="n7BuenmuqCD32Pcl5eWK-12" style="edgeStyle=orthogonalEdgeStyle;rounded=0;orthogonalLoop=1;jettySize=auto;html=1;exitX=0.5;exitY=0;exitDx=0;exitDy=0;" parent="1" target="n7BuenmuqCD32Pcl5eWK-2" edge="1">
          <mxGeometry relative="1" as="geometry">
            <mxPoint x="300" y="310" as="sourcePoint" />
          </mxGeometry>
        </mxCell>
        <mxCell id="WBLcJxLok1SSoJ_mdsIE-2" style="edgeStyle=orthogonalEdgeStyle;rounded=0;orthogonalLoop=1;jettySize=auto;html=1;exitX=0.5;exitY=0;exitDx=0;exitDy=0;entryX=0.5;entryY=1;entryDx=0;entryDy=0;" edge="1" parent="1" source="n7BuenmuqCD32Pcl5eWK-6" target="WBLcJxLok1SSoJ_mdsIE-1">
          <mxGeometry relative="1" as="geometry" />
        </mxCell>
        <mxCell id="n7BuenmuqCD32Pcl5eWK-6" value="DB" style="rounded=1;whiteSpace=wrap;html=1;" parent="1" vertex="1">
          <mxGeometry x="240" y="430" width="120" height="60" as="geometry" />
        </mxCell>
        <mxCell id="n7BuenmuqCD32Pcl5eWK-8" style="edgeStyle=orthogonalEdgeStyle;rounded=0;orthogonalLoop=1;jettySize=auto;html=1;exitX=1;exitY=0.5;exitDx=0;exitDy=0;" parent="1" source="n7BuenmuqCD32Pcl5eWK-7" target="n7BuenmuqCD32Pcl5eWK-6" edge="1">
          <mxGeometry relative="1" as="geometry" />
        </mxCell>
        <mxCell id="n7BuenmuqCD32Pcl5eWK-7" value="Advertiser" style="rounded=1;whiteSpace=wrap;html=1;" parent="1" vertex="1">
          <mxGeometry x="40" y="430" width="120" height="60" as="geometry" />
        </mxCell>
        <mxCell id="n7BuenmuqCD32Pcl5eWK-9" value="Ads" style="text;html=1;strokeColor=none;fillColor=none;align=center;verticalAlign=middle;whiteSpace=wrap;rounded=0;" parent="1" vertex="1">
          <mxGeometry x="170" y="430" width="60" height="30" as="geometry" />
        </mxCell>
        <mxCell id="WBLcJxLok1SSoJ_mdsIE-1" value="Index" style="rounded=1;whiteSpace=wrap;html=1;" vertex="1" parent="1">
          <mxGeometry x="240" y="310" width="120" height="60" as="geometry" />
        </mxCell>
        <mxCell id="WBLcJxLok1SSoJ_mdsIE-8" style="edgeStyle=orthogonalEdgeStyle;rounded=0;orthogonalLoop=1;jettySize=auto;html=1;exitX=1;exitY=0.5;exitDx=0;exitDy=0;entryX=0;entryY=0.5;entryDx=0;entryDy=0;" edge="1" parent="1" source="WBLcJxLok1SSoJ_mdsIE-5" target="WBLcJxLok1SSoJ_mdsIE-6">
          <mxGeometry relative="1" as="geometry" />
        </mxCell>
        <mxCell id="WBLcJxLok1SSoJ_mdsIE-5" value="Ad prediction" style="rounded=1;whiteSpace=wrap;html=1;" vertex="1" parent="1">
          <mxGeometry x="440" y="190" width="120" height="60" as="geometry" />
        </mxCell>
        <mxCell id="WBLcJxLok1SSoJ_mdsIE-13" style="edgeStyle=orthogonalEdgeStyle;rounded=0;orthogonalLoop=1;jettySize=auto;html=1;exitX=0.5;exitY=1;exitDx=0;exitDy=0;entryX=0.5;entryY=0;entryDx=0;entryDy=0;" edge="1" parent="1" source="WBLcJxLok1SSoJ_mdsIE-6" target="WBLcJxLok1SSoJ_mdsIE-11">
          <mxGeometry relative="1" as="geometry" />
        </mxCell>
        <mxCell id="WBLcJxLok1SSoJ_mdsIE-6" value="Auction" style="rounded=1;whiteSpace=wrap;html=1;" vertex="1" parent="1">
          <mxGeometry x="640" y="190" width="120" height="60" as="geometry" />
        </mxCell>
        <mxCell id="WBLcJxLok1SSoJ_mdsIE-9" value="advertisement / advertiser / user / context" style="text;html=1;strokeColor=none;fillColor=none;align=center;verticalAlign=middle;whiteSpace=wrap;rounded=0;" vertex="1" parent="1">
          <mxGeometry x="320" y="160" width="150" height="30" as="geometry" />
        </mxCell>
        <mxCell id="WBLcJxLok1SSoJ_mdsIE-10" value="ad / bidding / user engagement / negative feedback" style="text;html=1;strokeColor=none;fillColor=none;align=center;verticalAlign=middle;whiteSpace=wrap;rounded=0;" vertex="1" parent="1">
          <mxGeometry x="520" y="160" width="170" height="30" as="geometry" />
        </mxCell>
        <mxCell id="WBLcJxLok1SSoJ_mdsIE-15" style="edgeStyle=orthogonalEdgeStyle;rounded=0;orthogonalLoop=1;jettySize=auto;html=1;exitX=0;exitY=0.5;exitDx=0;exitDy=0;entryX=1;entryY=0.5;entryDx=0;entryDy=0;" edge="1" parent="1" source="WBLcJxLok1SSoJ_mdsIE-11" target="WBLcJxLok1SSoJ_mdsIE-12">
          <mxGeometry relative="1" as="geometry" />
        </mxCell>
        <mxCell id="WBLcJxLok1SSoJ_mdsIE-11" value="Ad" style="rounded=1;whiteSpace=wrap;html=1;" vertex="1" parent="1">
          <mxGeometry x="640" y="310" width="120" height="60" as="geometry" />
        </mxCell>
        <mxCell id="WBLcJxLok1SSoJ_mdsIE-17" style="edgeStyle=orthogonalEdgeStyle;rounded=0;orthogonalLoop=1;jettySize=auto;html=1;exitX=0.5;exitY=0;exitDx=0;exitDy=0;entryX=0.5;entryY=1;entryDx=0;entryDy=0;" edge="1" parent="1" source="WBLcJxLok1SSoJ_mdsIE-12" target="WBLcJxLok1SSoJ_mdsIE-5">
          <mxGeometry relative="1" as="geometry" />
        </mxCell>
        <mxCell id="WBLcJxLok1SSoJ_mdsIE-12" value="Training data generation" style="rounded=1;whiteSpace=wrap;html=1;" vertex="1" parent="1">
          <mxGeometry x="440" y="310" width="120" height="60" as="geometry" />
        </mxCell>
        <mxCell id="WBLcJxLok1SSoJ_mdsIE-14" value="user action" style="text;html=1;strokeColor=none;fillColor=none;align=center;verticalAlign=middle;whiteSpace=wrap;rounded=0;" vertex="1" parent="1">
          <mxGeometry x="560" y="280" width="80" height="30" as="geometry" />
        </mxCell>
        <mxCell id="WBLcJxLok1SSoJ_mdsIE-18" value="ad + user action" style="text;html=1;strokeColor=none;fillColor=none;align=center;verticalAlign=middle;whiteSpace=wrap;rounded=0;" vertex="1" parent="1">
          <mxGeometry x="400" y="270" width="95" height="30" as="geometry" />
        </mxCell>
      </root>
    </mxGraphModel>
  </diagram>
</mxfile>
